<?xml version="1.0" encoding="utf-8"?>
<!-- Generator: Adobe Illustrator 25.2.3, SVG Export Plug-In . SVG Version: 6.00 Build 0)  -->
<svg version="1.1" id="Layer_1" xmlns="http://www.w3.org/2000/svg" xmlns:xlink="http://www.w3.org/1999/xlink" x="0px" y="0px"
	 viewBox="0 0 500 500" style="enable-background:new 0 0 500 500;" xml:space="preserve">
<style type="text/css">
	.st0{fill:#7D938A;stroke:#000000;stroke-width:3;stroke-miterlimit:10;}
</style>
<path class="st0" d="M416.95,211.64c0,0.69,0,1.38-0.01,2.08c-0.14,14.24-1.72,28.16-4.58,41.58c-7,32.71-21.71,62.55-42.14,87.55
	c-7.74-7.25-14.77-17.19-18.04-27.57c12.94-17.8,22.63-38.11,28.21-60.08c3.49-13.77,5.37-28.2,5.41-43.05v-0.51
	c0-110.36-101.27-197.05-215.96-172.22C110.18,52.34,50.02,112.5,37.1,172.17C12.26,286.86,98.95,388.13,209.31,388.13
	c27.12,0,52.81-6.12,75.76-17.04c4.35,8.78,10.44,17.43,17.03,24.64c0.35,0.39,0.71,0.78,1.07,1.15
	c-43.03,21.87-94.7,29.16-148.51,15.42C83.36,394.09,27.21,338.18,8.81,266.94C-26.96,128.43,76.65,4,209.31,4
	C323.99,4,416.95,96.97,416.95,211.64z"/>
<line class="st0" x1="126.26" y1="316.15" x2="126.26" y2="315.46"/>
<path class="st0" d="M499.98,317.78c-1.23,56.26-47.23,101.49-103.79,101.49c-29.69,0-56.46-12.46-75.39-32.45
	c-7.14-7.54-13.16-16.15-17.8-25.58c-6.81-13.81-10.63-29.36-10.63-45.79V179.8c0-5.36-2.03-10.24-5.37-13.93
	c-2.95-3.25-6.91-5.56-11.38-6.45c-1.3-0.25-2.64-0.39-4.01-0.39c-1.37,0-2.71,0.14-4.01,0.39c-4.47,0.89-8.43,3.2-11.38,6.45
	c-3.34,3.68-5.37,8.57-5.37,13.93V315c0,10.11-7.04,19.14-17,20.9c-13.12,2.31-24.52-7.74-24.52-20.43V179.8
	c0-5.36-2.03-10.24-5.37-13.93c-2.95-3.25-6.91-5.56-11.38-6.45c-1.3-0.25-2.64-0.39-4.01-0.39s-2.71,0.14-4.01,0.39
	c-4.47,0.89-8.43,3.2-11.38,6.45c-3.34,3.68-5.37,8.57-5.37,13.93V315c0,10.11-7.04,19.14-17,20.9
	c-13.12,2.31-24.52-7.74-24.52-20.43V179.11c0-3.46-2.3-9.34-7.56-13.62c-5.44-4.42-11.25-5.07-13.21-5.07
	c-1.38,0-5.62-0.94-13.84,4.15c-2.56,1.99-4.43,4.33-5.54,6.92c-4.15,9.69-1.92,16.78-1.38,18.44c-15.66,0.71-23.8-14.34-20.21-28.1
	c3.67-25.07,25.26-44.32,51.36-44.32c16.98,0,32.06,8.15,41.53,20.76c9.47-12.61,24.54-20.76,41.53-20.76s32.06,8.15,41.53,20.76
	c10.16-13.53,26.77-21.93,45.27-20.63c26.53,1.86,48.16,26.05,48.16,52.65v145.17c0,6.4,0.97,12.58,2.75,18.4
	c3.24,10.47,9.16,19.77,16.96,27.08c11.13,10.42,26.12,16.82,42.58,16.82c34.19,0,61.96-27.56,62.29-61.68
	c0-11.49,9.32-20.79,20.79-20.79c10.96,0,19.95,8.47,20.72,19.24C500.01,314.84,499.99,317.01,499.98,317.78z"/>
<line class="st0" x1="370.23" y1="342.87" x2="370.22" y2="342.85"/>
<path class="st0" d="M352.18,315.28c-0.03-0.07-0.04-0.14-0.07-0.21"/>
</svg>
